# xmcd
#
# Track frame offsets:
#	150
#	24953
#	42102
#	62988
#	83951
#	103429
#	120993
#	136752
#	155950
#	177310
#	193135
#	209925
#	227970
#	246605
#
# Disc length: 3593 seconds
#
# Revision: 2
# Processed by: cddbd v1.5.2PL0 Copyright (c) Steve Scherf et al.
# Submitted via: EasyCDDAExtractor 16.0.8.1
#
DISCID=d60e070e
DTITLE=姜蘇 - 讓我們看雲去
DYEAR=2004
DGENRE=Blues
TTITLE0=一條路 - 姜蘇
TTITLE1=金盞花 - 姜蘇
TTITLE2=心的祈禱 - 姜蘇
TTITLE3=俏姑娘 - 姜蘇
TTITLE4=夢的衣裳 - 姜蘇
TTITLE5=雨中即景 - 姜蘇
TTITLE6=讓我們看雲去 - 姜蘇
TTITLE7=詩意 - 姜蘇
TTITLE8=卻上心頭 - 姜蘇
TTITLE9=遲到 - 姜蘇
TTITLE10=聚散兩依依 - 姜蘇
TTITLE11=你帶來一片溫柔 - 姜蘇
TTITLE12=一顆紅豆 - 姜蘇
TTITLE13=我是一片雲 - 姜蘇
EXTD=
EXTT0=
EXTT1=
EXTT2=
EXTT3=
EXTT4=
EXTT5=
EXTT6=
EXTT7=
EXTT8=
EXTT9=
EXTT10=
EXTT11=
EXTT12=
EXTT13=
PLAYORDER=
